<?xml version="1.0" standalone="no"?>
<!DOCTYPE svg PUBLIC "-//W3C//DTD SVG 20010904//EN"
 "http://www.w3.org/TR/2001/REC-SVG-20010904/DTD/svg10.dtd">
<svg version="1.0" xmlns="http://www.w3.org/2000/svg"
 width="472.000000pt" height="472.000000pt" viewBox="0 0 472.000000 472.000000"
 preserveAspectRatio="xMidYMid meet">
<metadata>
Created by potrace 1.14, written by Peter Selinger 2001-2017
</metadata>
<g transform="translate(0.000000,472.000000) scale(0.100000,-0.100000)"
fill="#000000" stroke="none">
<path d="M2118 4685 c-2 -1 -25 -5 -53 -9 -184 -21 -333 -59 -565 -141 -91
-33 -317 -152 -429 -226 -461 -306 -804 -774 -949 -1295 -33 -117 -59 -237
-67 -306 -2 -24 -8 -72 -12 -108 -13 -120 -7 -451 11 -535 2 -11 7 -42 10 -70
15 -108 72 -310 138 -485 7 -19 41 -91 75 -160 317 -640 924 -1103 1627 -1240
140 -27 171 -30 339 -37 l147 -6 0 1797 0 1797 -52 53 c-49 48 -91 74 -144 90
-20 6 -30 -14 -129 -256 -166 -405 -345 -845 -467 -1148 -60 -151 -116 -288
-123 -305 -7 -16 -24 -58 -36 -92 -17 -45 -26 -58 -32 -47 -12 21 -178 440
-399 1004 -104 267 -209 531 -234 587 -24 56 -44 106 -44 110 0 13 94 119 184
207 257 251 590 434 951 524 201 50 437 67 675 49 87 -7 108 -10 195 -27 28
-6 59 -12 70 -14 11 -2 40 -10 65 -17 25 -7 47 -13 50 -14 89 -21 293 -104
395 -160 277 -151 502 -342 677 -572 316 -418 462 -927 415 -1448 -14 -154
-61 -360 -117 -515 -73 -201 -232 -471 -375 -636 -227 -261 -525 -470 -840
-587 -75 -28 -240 -77 -259 -77 -8 0 -11 484 -11 1891 0 1377 -3 1893 -11
1900 -17 14 -123 -44 -173 -95 l-44 -45 -1 -1971 -1 -1971 55 5 c30 3 64 7 75
10 11 2 40 7 65 11 75 12 233 53 326 86 566 197 1022 586 1303 1113 49 92 134
291 151 356 7 25 18 64 26 87 17 50 60 255 71 338 10 76 10 512 1 585 -8 55
-14 94 -23 140 -3 14 -8 39 -11 55 -2 17 -7 38 -10 47 -3 9 -7 25 -9 35 -2 10
-15 57 -29 104 -186 635 -682 1189 -1299 1453 -183 78 -382 136 -557 162 -14
2 -54 8 -90 13 -57 8 -493 14 -502 6z m-1675 -2293 c-2 -873 -1 -797 -8 -790
-6 6 -54 140 -66 183 -4 17 -15 55 -23 85 -8 30 -17 69 -20 85 -3 17 -10 53
-15 82 -19 98 -24 168 -25 323 -1 141 9 313 18 329 2 3 7 26 10 51 6 41 8 54
20 108 23 102 97 322 109 322 1 0 1 -350 0 -778z m1718 -657 c3 -1393 3 -1410
-16 -1409 -201 11 -499 97 -724 209 -262 130 -533 354 -709 586 l-42 56 2 984
c2 599 7 976 12 964 5 -11 94 -236 198 -500 105 -264 196 -493 203 -510 7 -16
20 -48 28 -70 8 -22 18 -47 21 -55 3 -8 65 -166 139 -349 111 -278 136 -332
145 -315 7 14 493 1218 720 1787 8 20 16 36 18 35 1 -2 4 -637 5 -1413z"/>
</g>
</svg>
