
<svg version="1.0" xmlns="http://www.w3.org/2000/svg"
 width="200.000000pt" height="200.000000pt" viewBox="0 0 200.000000 200.000000"
 preserveAspectRatio="xMidYMid meet">

<g transform="translate(0.000000,300.000000) scale(0.100000,-0.100000)"
fill="#000000" stroke="none">
<path d="M1332 2802 l-72 -77 -55 57 -56 57 -77 -26 c-95 -31 -193 -75 -232
-103 -17 -12 -30 -19 -30 -15 0 7 -110 -66 -155 -103 -230 -188 -390 -418
-470 -677 -36 -118 -60 -244 -52 -276 3 -10 1 -19 -4 -19 -5 0 -9 -50 -9 -111
0 -523 285 -998 740 -1233 190 -98 351 -143 553 -154 l117 -7 0 965 0 964 -32
34 -33 33 33 30 c27 26 32 37 32 78 0 44 -4 52 -39 84 -42 38 -79 54 -90 40
-4 -4 -38 -84 -76 -178 -37 -93 -74 -183 -81 -200 -7 -16 -29 -70 -49 -120
-20 -49 -44 -108 -54 -130 -10 -22 -58 -140 -107 -262 -48 -123 -91 -219 -94
-215 -4 4 -26 57 -50 117 -23 61 -51 128 -60 150 -10 22 -27 66 -39 97 -26 73
-92 240 -188 481 l-74 188 41 49 c23 27 62 68 88 90 l45 41 -33 34 -34 35 79
80 c44 44 87 80 96 80 9 0 22 7 29 16 12 13 20 9 65 -36 29 -29 55 -48 59 -42
8 14 160 69 261 94 76 18 118 22 267 23 l177 0 -66 67 -66 66 64 -4 c35 -3 85
-10 111 -16 26 -5 53 -6 60 -2 22 14 -49 24 -212 28 l-155 5 -73 -77z m238 13
c24 -24 42 -46 39 -49 -7 -7 -289 -11 -287 -4 2 3 22 27 46 52 41 44 45 46
100 46 55 0 60 -2 102 -45z m-380 -40 c29 -30 32 -37 20 -45 -14 -9 -46 -14
-78 -13 -7 1 -11 -2 -7 -5 3 -4 -16 -14 -42 -23 -26 -9 -68 -25 -92 -34 l-45
-16 -33 34 -34 34 23 15 c25 16 170 74 203 81 42 9 52 6 85 -28z m-530 -209
c0 -2 -8 -10 -17 -17 -16 -13 -17 -12 -4 4 13 16 21 21 21 13z m-33 -42 c2 -5
-42 -54 -96 -108 l-100 -100 60 -63 c32 -35 59 -70 59 -78 0 -7 9 -35 21 -61
l20 -49 -89 -87 c-49 -49 -86 -88 -82 -88 4 0 15 9 26 21 19 21 19 19 24 -172
l5 -194 -25 -28 c-24 -27 -25 -27 -43 -9 -17 17 -18 37 -18 207 0 128 3 190
11 195 8 5 6 11 -5 20 -8 7 -15 22 -15 34 -1 18 -2 19 -10 5 -6 -10 -9 -204
-7 -482 1 -256 -1 -463 -5 -461 -4 3 -21 48 -38 102 -80 247 -76 528 10 779
15 46 25 81 21 78 -4 -2 -27 15 -50 39 l-42 42 41 74 c22 40 40 75 40 78 0 3
17 26 38 51 20 25 37 49 37 53 0 4 41 51 90 104 50 53 92 101 94 106 4 11 23
6 28 -8z m43 -63 c0 -3 -36 -44 -80 -91 -44 -46 -80 -93 -80 -104 0 -18 -3
-17 -30 9 -16 16 -30 34 -30 39 0 6 41 51 90 100 88 87 91 88 110 71 11 -10
20 -21 20 -24z m796 -167 c31 -24 34 -31 34 -78 0 -60 -18 -93 -45 -82 -15 5
-16 4 -5 -9 12 -14 0 -29 -86 -116 -54 -54 -95 -99 -90 -99 5 0 51 41 102 92
90 88 95 91 109 72 12 -15 14 -50 12 -181 -1 -88 1 -159 6 -156 4 2 7 -15 7
-39 l0 -42 -22 22 -22 22 -26 -25 -25 -24 3 158 c3 133 1 159 -12 170 -22 19
-40 1 -62 -59 -10 -27 -22 -46 -27 -43 -6 3 -7 1 -3 -5 4 -6 2 -19 -3 -29 -5
-10 -31 -74 -57 -143 -26 -69 -52 -129 -56 -135 -5 -6 -22 4 -43 26 l-35 34
29 56 c16 30 32 66 36 80 19 61 56 129 71 129 14 0 14 2 -1 16 -9 10 -12 20
-7 23 5 3 13 17 17 31 4 14 35 93 70 175 34 83 65 158 68 168 9 23 22 22 63
-9z m-846 -306 c13 -35 45 -116 72 -182 26 -65 48 -124 48 -130 0 -6 16 -42
34 -80 l34 -69 -88 88 c-49 49 -86 93 -83 98 3 6 2 7 -4 4 -5 -3 -15 8 -21 26
-5 18 -29 79 -51 137 l-41 104 33 33 c17 18 34 33 37 33 3 0 16 -28 30 -62z
m-319 21 c16 -17 29 -32 29 -34 0 -1 -7 -22 -16 -46 -31 -88 -61 -215 -57
-244 l4 -30 -23 22 -22 23 -40 -38 c-26 -25 -37 -31 -31 -17 4 11 10 39 12 63
5 37 8 41 22 30 14 -12 14 -11 2 5 -16 21 -11 62 23 167 29 93 46 130 59 130
5 0 22 -14 38 -31z m1099 -894 l0 -856 -37 6 c-194 31 -287 61 -433 137 -153
79 -277 180 -393 319 l-47 56 0 591 c0 326 4 592 9 592 5 0 13 -12 19 -27 6
-16 81 -206 167 -423 146 -367 232 -587 250 -635 6 -16 8 -17 12 -5 8 25 374
942 393 985 10 22 23 57 31 78 7 20 17 37 21 37 4 0 8 -385 8 -855z m-1162
539 c5 -8 6 -35 2 -59 -14 -91 5 -297 32 -350 7 -13 -1 -9 -24 12 l-34 33 -26
-26 -26 -26 -3 46 c-3 27 0 46 6 46 5 0 4 4 -4 9 -10 7 -15 41 -17 134 l-3
125 31 36 c33 39 52 45 66 20z m1250 3 c6 -7 12 -91 14 -209 3 -196 3 -197
-17 -178 -19 20 -19 20 -48 -8 -26 -24 -29 -25 -23 -6 3 11 7 99 7 195 1 131
5 179 15 197 16 25 36 28 52 9z m-672 -182 c-3 -8 -2 -15 2 -15 4 0 27 -49 51
-110 64 -162 83 -167 133 -40 16 41 33 80 38 85 4 6 13 26 18 45 20 69 52 144
64 151 15 9 58 -35 58 -59 0 -16 -38 -115 -76 -199 -8 -17 -14 -40 -14 -52 0
-24 -12 -27 -29 -7 -9 11 -28 -4 -98 -75 -84 -86 -103 -101 -103 -79 0 11 -85
236 -125 330 -52 123 -75 182 -75 192 0 5 36 -26 81 -71 52 -52 79 -87 75 -96z
m-346 -140 c0 -96 3 -180 5 -188 3 -7 -8 -26 -24 -41 l-30 -29 -20 24 c-11 13
-18 30 -16 36 2 7 5 91 5 188 2 160 3 174 18 166 12 -6 24 -4 37 5 10 8 20 14
21 14 2 0 3 -79 4 -175z m-196 -148 c8 -41 48 -141 66 -162 11 -14 8 -21 -25
-55 -44 -45 -50 -47 -58 -22 -3 9 -21 62 -40 117 -50 145 -50 148 -26 179 l22
27 27 -26 c16 -15 31 -41 34 -58z m1228 -149 l3 -197 -20 19 c-20 19 -21 19
-33 0 -18 -29 -32 -24 -32 11 0 28 2 30 17 18 15 -13 15 -12 5 8 -7 12 -17 25
-22 28 -6 4 -8 11 -4 16 3 6 5 71 5 146 -2 128 0 137 21 160 21 22 23 23 39 6
15 -16 18 -44 21 -215z m-432 217 c0 -5 -36 -98 -55 -140 -7 -16 -25 -63 -40
-103 -15 -41 -31 -70 -35 -65 -11 11 -63 143 -58 148 92 103 188 184 188 160z
m-605 -165 c-3 -5 -1 -19 5 -30 13 -24 3 -26 -22 -4 -17 16 -17 18 0 30 21 16
25 17 17 4z m-59 -29 c-12 -19 -24 -12 -19 10 4 13 9 17 15 11 6 -6 7 -15 4
-21z m48 -23 c13 -17 16 -51 16 -148 0 -84 4 -130 12 -138 9 -9 5 -19 -17 -44
l-30 -33 29 26 28 26 111 -112 c105 -105 239 -206 316 -238 l31 -13 -39 -38
-39 -38 -34 25 c-18 14 -46 29 -61 32 -36 9 -413 377 -403 394 4 6 4 11 -1 11
-12 0 -92 141 -93 165 0 14 132 145 147 145 6 0 19 -10 27 -22z m1048 -410 l3
-197 -20 19 c-20 19 -21 19 -33 0 -7 -11 -16 -20 -20 -20 -5 0 -9 86 -11 191
-2 186 -1 193 21 216 21 22 23 23 39 6 16 -16 18 -43 21 -215z m-18 -194 c13
-12 16 -41 16 -150 l0 -134 -37 -1 c-21 0 -49 -2 -63 -4 -14 -2 -43 0 -65 5
-22 4 -67 14 -100 20 -70 13 -203 53 -260 79 -22 9 -51 22 -64 27 l-24 10 32
33 c35 36 35 36 136 -4 94 -36 212 -67 279 -72 79 -7 90 5 92 99 1 50 6 74 19
88 22 24 20 24 39 4z"/>
<path d="M1370 2207 c0 -2 15 -16 33 -33 l32 -29 -29 33 c-28 30 -36 37 -36
29z"/>
<path d="M1238 2856 c-63 -14 -94 -31 -38 -22 19 3 53 8 75 10 22 3 54 9 70
15 30 9 30 9 -10 9 -22 0 -66 -5 -97 -12z"/>
<path d="M1737 2792 l-58 -58 100 -22 c352 -80 641 -299 826 -627 31 -53 47
-48 20 7 -28 54 -107 168 -127 182 -17 12 -17 14 -3 26 14 12 4 26 -87 117
l-103 103 32 32 32 32 -77 54 c-102 71 -168 105 -193 97 -10 -4 -19 -2 -19 4
0 17 -66 51 -161 81 -51 17 -99 30 -108 30 -9 0 -42 -26 -74 -58z m120 23 c20
-8 38 -13 40 -11 7 7 134 -43 159 -63 l22 -18 -26 -24 c-41 -38 -48 -40 -78
-24 -16 8 -35 15 -42 15 -8 0 -28 6 -45 14 -37 16 -112 36 -144 39 -13 1 -23
3 -23 6 0 12 75 81 87 81 8 0 30 -7 50 -15z m258 -105 c4 -6 11 -8 16 -5 5 4
22 -3 38 -14 16 -12 32 -21 36 -21 3 0 21 -11 39 -25 18 -14 37 -25 43 -25 5
0 19 -10 31 -23 l22 -24 -21 -19 c-20 -18 -21 -18 -101 64 -45 45 -83 81 -85
79 -2 -2 35 -42 82 -87 47 -46 85 -88 85 -92 0 -24 -34 -16 -72 15 -47 39
-198 123 -198 111 0 -4 -3 -4 -7 -1 -8 9 57 77 73 77 7 0 16 -5 19 -10z m230
-252 l40 -42 -42 33 c-24 18 -43 37 -43 42 0 14 3 12 45 -33z m100 -99 c28
-28 45 -50 40 -48 -11 4 -101 99 -93 99 2 0 26 -23 53 -51z"/>
<path d="M864 2589 c-32 -18 -61 -35 -64 -39 -3 -4 -12 -11 -21 -16 -29 -16
-82 -65 -76 -70 2 -3 40 21 83 52 44 31 96 65 117 75 36 19 46 29 28 29 -4 0
-35 -14 -67 -31z"/>
<path d="M1735 2553 c-17 -9 -42 -27 -57 -41 -25 -23 -28 -32 -28 -94 0 -42 4
-68 11 -68 7 0 9 19 5 56 -5 54 -4 58 29 91 44 44 60 39 60 -20 0 -25 3 -49 7
-52 7 -8 15 123 8 135 -3 5 -19 1 -35 -7z"/>
<path d="M2370 2566 c0 -10 184 -186 194 -186 5 0 -2 -13 -17 -28 -15 -15 -27
-32 -27 -37 0 -5 45 -55 100 -110 l100 -100 -44 -38 -43 -39 29 -71 c244 -601
-37 -1303 -635 -1582 -77 -36 -220 -85 -247 -85 -3 0 -5 477 -5 1060 l0 1059
-47 -46 -48 -47 40 -41 41 -42 -2 -110 c-1 -61 1 -115 4 -121 4 -5 -16 -31
-43 -57 -28 -27 -51 -47 -51 -45 -1 3 -3 100 -5 215 -4 250 -2 225 -11 225 -5
0 -8 -11 -8 -25 0 -14 3 -25 7 -25 3 0 4 -8 2 -17 -7 -32 -9 -2153 -2 -2153 4
0 55 9 113 20 499 97 908 458 1059 936 52 166 61 227 61 424 -1 202 -12 279
-65 433 -72 212 -175 379 -331 536 -88 88 -119 113 -119 97z m-617 -243 c-2
-26 -5 -49 -7 -51 -2 -2 -13 7 -25 19 l-21 23 27 28 c15 15 27 28 28 28 1 0 0
-21 -2 -47z m902 -88 c31 -48 44 -75 37 -75 -4 0 -43 35 -86 79 -78 78 -78 78
-56 94 22 15 24 14 54 -26 18 -23 40 -55 51 -72z m81 -141 c-3 -9 2 -28 13
-42 22 -32 78 -192 84 -243 2 -20 7 -41 10 -45 3 -5 8 -34 11 -64 12 -97 18
-134 22 -142 3 -5 1 -8 -4 -8 -15 0 -124 119 -117 130 8 14 -31 171 -67 268
l-31 84 39 38 c44 44 49 47 40 24z m-984 -196 c3 -27 1 -48 -4 -48 -5 0 -6 -5
-2 -12 4 -6 8 -69 9 -139 l2 -128 -43 -42 c-24 -24 -44 -41 -44 -39 -5 57 -3
400 3 400 4 0 9 0 12 0 3 0 17 13 32 30 14 17 27 30 28 28 2 -2 5 -24 7 -50z
m1073 -325 c34 -39 40 -53 41 -92 0 -25 -3 -51 -8 -58 -5 -6 -5 -14 0 -17 5
-3 5 -28 0 -58 -4 -29 -11 -78 -14 -108 -4 -30 -8 -57 -11 -60 -2 -2 -22 14
-44 36 l-40 41 12 64 c7 35 12 117 12 182 -1 64 2 117 6 117 3 0 24 -21 46
-47z m-1109 -450 c-38 -41 -64 -48 -51 -15 3 9 6 94 6 190 l0 173 37 34 37 34
5 -187 5 -187 -39 -42z m1074 76 c16 -18 30 -38 30 -44 0 -18 -49 -161 -76
-223 -16 -36 -56 -86 -126 -160 -74 -77 -84 -89 -33 -42 39 36 75 72 82 80 7
8 13 12 13 8 0 -5 -27 -47 -60 -95 -57 -83 -253 -293 -274 -293 -5 0 -18 8
-28 17 -17 16 -20 16 -36 -2 -16 -18 -16 -18 1 -6 14 11 20 11 32 1 14 -11 14
-15 -2 -32 -22 -25 -133 -92 -140 -85 -3 3 -19 -8 -37 -24 -21 -20 -38 -28
-54 -26 -12 3 -20 2 -18 -1 8 -7 -52 -36 -119 -57 -33 -10 -84 -26 -114 -36
l-54 -18 -56 57 -56 57 4 190 3 190 37 32 36 31 1 -41 c1 -23 3 -109 4 -190
l3 -148 -39 -40 c-21 -21 -33 -39 -28 -39 6 0 21 11 34 25 l23 24 18 -23 19
-24 62 18 c105 30 172 53 188 66 8 6 40 24 70 39 30 15 79 43 108 62 32 21 59
33 69 29 13 -5 14 -4 3 9 -9 11 -9 15 -1 15 7 0 54 41 106 91 56 55 99 88 105
84 9 -6 9 -2 1 14 -7 11 -8 21 -3 21 8 0 55 61 96 125 57 88 156 330 156 381
0 22 18 16 50 -17z m-1074 -486 c-22 -24 -42 -41 -44 -38 -2 2 -4 91 -3 196
l2 193 37 32 37 32 5 -187 5 -186 -39 -42z m4 -508 c18 -19 32 -37 29 -39 -2
-2 -20 -6 -39 -8 -35 -3 -35 -3 -36 40 -1 23 1 42 5 42 4 0 22 -16 41 -35z"/>
<path d="M2199 363 l-24 -28 28 24 c15 14 27 26 27 28 0 8 -8 1 -31 -24z"/>
<path d="M1512 2110 c0 -19 2 -27 5 -17 2 9 2 25 0 35 -3 9 -5 1 -5 -18z"/>
</g>
</svg>
