<svg width="60" height="50" viewBox="0 0 60 50" fill="none" xmlns="http://www.w3.org/2000/svg">
<path d="M34.6627 49.478C34.6526 49.4176 34.6312 49.3571 34.635 49.2966C34.6488 49.0547 34.5632 48.8456 34.4611 48.6326C34.3099 48.3202 34.199 47.9876 34.0428 47.6764C33.903 47.3967 33.7379 47.1283 33.5628 46.8688C33.3927 46.6155 33.2541 46.3572 33.2251 46.046C33.1747 45.5156 33.1004 44.989 33.1143 44.4535C33.1218 44.141 33.0387 43.8311 33.0727 43.5149C33.0966 43.2906 33.1092 43.0651 33.113 42.8408C33.118 42.4868 33.0374 42.1554 32.8497 41.848C32.7879 41.7472 32.7539 41.62 32.7376 41.5015C32.7061 41.2584 32.6998 41.0139 32.7426 40.7683C32.8535 40.1194 32.8724 39.4655 32.8257 38.8091C32.8194 38.7209 32.7993 38.634 32.7804 38.547C32.6884 38.1288 32.759 37.7344 32.9505 37.3577C33.0097 37.2418 33.055 37.1196 33.1218 37.0087C33.2818 36.7391 33.4444 36.472 33.6157 36.2112C33.6888 36.099 33.6989 36.0108 33.6132 35.8974C33.559 35.8256 33.5414 35.7261 33.4948 35.6064C33.4192 35.7059 33.3549 35.7904 33.2919 35.876C33.2995 35.8861 33.307 35.8962 33.3133 35.9075C33.3662 35.8886 33.4204 35.8697 33.4721 35.8508C33.4746 35.8596 33.4847 35.8748 33.4809 35.8811C33.4519 35.9352 33.4255 35.9907 33.3877 36.0386C33.3599 36.0738 33.3158 36.1255 33.2831 36.1217C33.0563 36.1003 33.0727 36.2842 33.0009 36.4291C33.1143 36.4291 33.205 36.4291 33.302 36.4291C33.2667 36.7114 33.0651 36.5337 32.9228 36.5891C32.8736 36.7151 32.8157 36.86 32.759 37.0036C32.662 37.2531 32.4755 37.3048 32.2676 37.1385C32.1618 37.0528 32.0585 36.9633 31.9501 36.8802C31.8972 36.8386 31.8531 36.7932 31.8796 36.7265C31.9577 36.5274 31.8506 36.3712 31.7636 36.1784C31.6969 36.1973 31.6112 36.196 31.5671 36.2389C31.4625 36.3397 31.3605 36.3208 31.2471 36.2729C31.0266 36.1809 30.8074 36.0877 30.5831 36.0033C30.4697 35.9604 30.3475 35.9403 30.2303 35.9037C30.1661 35.8836 30.1031 35.8584 30.0451 35.8244C29.5475 35.5321 29.0977 35.178 28.7008 34.7597C28.2674 34.3037 27.8151 33.8677 27.2985 33.5049C27.0314 33.3171 26.758 33.1332 26.472 32.9757C26.3145 32.8888 26.1268 32.856 25.9517 32.8031C25.8282 32.7653 25.7035 32.73 25.5775 32.6998C25.4326 32.6645 25.2827 32.6456 25.1403 32.599C25.0055 32.5549 24.8757 32.4906 24.751 32.4239C24.5406 32.3105 24.3415 32.1757 24.1273 32.0736C23.7972 31.9161 23.4596 31.7763 23.1232 31.6326C23.0803 31.6138 23.0312 31.6112 22.9846 31.5999C22.8876 31.5747 22.7792 31.5671 22.6948 31.518C22.4945 31.4033 22.2752 31.3592 22.0535 31.3189C21.9048 31.2925 21.4387 31.4311 21.324 31.5306C21.3089 31.5445 21.2913 31.5558 21.2787 31.5709C21.0834 31.7914 21.0909 31.8519 21.3467 31.9993C21.5243 32.1001 21.7007 32.2072 21.9099 32.2361C21.9414 32.2399 21.9691 32.2651 21.9968 32.279C21.9464 32.4327 21.9237 32.4453 21.8078 32.3747C21.6037 32.25 21.4021 32.1228 21.1993 31.998C21.1703 31.9804 21.1401 31.9653 21.1124 31.9501C20.8881 32.1706 20.8755 32.3747 21.0758 32.6091C21.3454 32.9253 21.6655 33.1748 22.0447 33.3474C22.1127 33.3789 22.177 33.4167 22.2437 33.452C22.3597 33.5112 22.3899 33.4986 22.4441 33.3776C22.5109 33.2277 22.5184 33.074 22.4794 32.9165C22.4264 32.7048 22.4529 32.4957 22.4945 32.2878C22.4983 32.2727 22.5172 32.2601 22.5411 32.2336C22.5978 32.3168 22.5726 32.3987 22.5726 32.4743C22.5751 32.6456 22.5625 32.8157 22.6935 32.9568C22.72 32.9858 22.7137 33.0589 22.7024 33.108C22.6633 33.2806 22.6142 33.4494 22.5738 33.6208C22.5436 33.7468 22.4504 33.7896 22.3496 33.7052C22.1278 33.5187 21.857 33.4167 21.6201 33.2592C21.4109 33.1206 21.2182 32.9568 21.0204 32.8006C20.9964 32.7817 20.9876 32.7426 20.97 32.7137C20.9171 32.628 20.8717 32.536 20.8074 32.4579C20.6941 32.3206 20.6865 32.2739 20.8049 32.1454C20.8503 32.095 20.9095 32.0572 20.9523 32.0056C21.0242 31.9174 21.0229 31.8645 20.9271 31.8015C20.6411 31.6125 20.4446 31.3441 20.243 31.0758C20.0754 30.8528 19.889 30.6436 19.7164 30.4231C19.2124 29.7793 18.8899 29.0448 18.6555 28.2674C18.6442 28.2284 18.6417 28.1805 18.6177 28.1515C18.5761 28.1036 18.5245 28.0406 18.4691 28.0318C18.2549 27.9991 18.0382 27.9487 17.8215 28.0318C17.7824 28.0469 17.7232 28.0457 17.6867 28.0268C17.4926 27.9235 17.286 27.9109 17.0731 27.9159C17.0139 27.9172 16.9534 27.897 16.8954 27.8794C16.7001 27.8227 16.5086 27.7609 16.3007 27.7395C16.1458 27.7231 15.9996 27.6211 15.851 27.5543C15.541 27.4132 15.221 27.3905 14.8972 27.4938C14.809 27.5216 14.7233 27.5732 14.654 27.6337C14.5709 27.708 14.4928 27.7395 14.3781 27.7219C14.2131 27.6954 14.0468 27.6438 13.8754 27.7244C13.8263 27.7471 13.7431 27.7093 13.6801 27.6891C13.4899 27.6261 13.3072 27.5619 13.1119 27.6879C13.0628 27.7194 12.9645 27.6967 12.8965 27.674C12.6835 27.6035 12.4807 27.5871 12.2564 27.6589C12.0926 27.7118 11.9049 27.7131 11.7298 27.7042C11.183 27.679 10.6563 27.8038 10.1322 27.9235C9.65346 28.0331 9.18225 28.1704 8.70726 28.2977C8.04581 28.4753 7.3768 28.5912 6.68889 28.6076C5.74017 28.629 4.8217 28.8155 3.92842 29.1405C3.4106 29.3295 2.87765 29.4795 2.35227 29.6508C2.00202 29.7642 1.65302 29.8814 1.30402 30.0011C1.20323 30.0363 1.10748 30.088 0.996607 30.1371C1.10748 30.4282 1.20827 30.7016 1.3141 30.9737C1.43002 31.2685 1.49931 31.5722 1.50813 31.8897C1.51317 32.095 1.45773 32.1354 1.26623 32.0648C1.08984 31.9993 0.895814 31.9955 0.734546 31.8745C0.422088 31.6402 0.104589 31.4134 -0.0780978 31.0531C-0.125974 30.9586 -0.146133 30.8477 -0.175111 30.7444C-0.18645 30.7054 -0.18267 30.6625 -0.194009 30.6235C-0.246926 30.442 -0.31496 30.3979 -0.492608 30.4597C-0.760969 30.5516 -1.02555 30.6575 -1.29139 30.757C-1.29013 30.7734 -1.28887 30.7885 -1.28761 30.8049C-1.1717 30.8263 -1.05579 30.8477 -0.939877 30.8691C-0.873101 30.8817 -0.805066 30.8906 -0.738291 30.9069C-0.527886 30.9599 -0.496388 31.0405 -0.603481 31.2509C-0.621119 31.2433 -0.650097 31.2408 -0.655136 31.2282C-0.725691 31.0203 -0.903339 31.0027 -1.08225 30.9788C-1.25107 30.9573 -1.41738 30.9246 -1.58495 30.8918C-1.62149 30.8843 -1.65551 30.8603 -1.73236 30.8225C-1.65173 30.7797 -1.60511 30.7482 -1.55471 30.7306C-1.27249 30.6298 -0.987753 30.534 -0.705533 30.4332C-0.622379 30.4042 -0.545525 30.374 -0.519067 30.2656C-0.508987 30.2203 -0.439691 30.1812 -0.389295 30.156C-0.341418 30.1334 -0.282203 30.1346 -0.230547 30.1208C-0.120935 30.0905 -0.0390405 30.0351 0.0163956 29.9267C0.149946 29.6672 0.432167 29.5538 0.719426 29.6143C0.777382 29.6269 0.851717 29.6029 0.908413 29.5752C1.18433 29.4417 1.45647 29.298 1.73239 29.1632C1.84579 29.1078 1.96674 29.0725 2.10785 29.1191C1.88736 29.2124 1.6631 29.2968 1.44891 29.4026C1.23725 29.5072 1.03566 29.6306 0.846678 29.7743C0.866836 29.8007 0.875656 29.8196 0.883215 29.8196C1.16544 29.7881 1.45018 29.7718 1.72484 29.6861C2.19352 29.5399 2.66473 29.4026 3.13216 29.2527C3.43076 29.1569 3.72557 29.0473 4.02165 28.9427C4.87209 28.6429 5.74647 28.4728 6.64857 28.464C7.53807 28.4552 8.39607 28.275 9.24147 28.0167C10.034 27.7748 10.839 27.5921 11.6668 27.5405C12.1771 27.509 12.6886 27.5115 13.2001 27.509C13.4458 27.5077 13.6902 27.5329 13.9359 27.543C14.0657 27.548 14.1967 27.5568 14.3239 27.5417C14.4499 27.5253 14.5734 27.4863 14.6944 27.4447C14.9388 27.3603 15.1794 27.262 15.4264 27.1852C15.4768 27.1688 15.57 27.2003 15.6065 27.2431C15.7565 27.4145 15.9606 27.4623 16.1634 27.519C16.2466 27.5417 16.3259 27.5783 16.4066 27.6085C16.4444 27.6224 16.4822 27.6463 16.5212 27.6513C16.9269 27.6954 17.3162 27.8391 17.7333 27.8164C17.9815 27.8025 18.2322 27.8328 18.5119 27.8441C18.4892 27.7269 18.4728 27.6362 18.4539 27.5455C18.3645 27.1259 18.275 26.7051 18.1831 26.2856C18.0961 25.8938 18.0079 25.5007 17.916 25.1101C17.8227 24.712 17.6262 24.3604 17.3956 24.0278C17.2117 23.7632 17.0479 23.4911 16.9559 23.1774C16.9143 23.035 16.8274 22.9065 16.7682 22.7692C16.5893 22.3521 16.5112 21.9074 16.4217 21.4652C16.1546 20.1322 16.1105 18.7816 16.1407 17.4284C16.1559 16.7796 16.1974 16.1332 16.2944 15.4907C16.3272 15.2752 16.336 15.056 16.3663 14.8393C16.4444 14.2786 16.5238 13.718 16.6094 13.1586C16.7594 12.167 16.942 11.1805 17.1839 10.2066C17.3553 9.51742 17.5972 8.84967 17.9336 8.21971C18.1692 7.77874 18.4615 7.37683 18.7374 6.96232C19.1507 6.33993 19.6496 5.78683 20.1624 5.2501C20.7243 4.66298 21.348 4.14138 22.0031 3.65758C22.6633 3.16999 23.3563 2.73658 24.1021 2.3901C24.7888 2.07009 25.5031 1.8559 26.2641 1.81432C26.3876 1.80802 26.4405 1.75763 26.4733 1.6392C26.5262 1.45147 26.6471 1.28264 26.6371 1.07476C26.6358 1.05712 26.6824 1.02184 26.7064 1.02058C26.7328 1.01932 26.7769 1.04578 26.7845 1.06846C26.7983 1.11129 26.8008 1.16421 26.7895 1.20705C26.758 1.32548 26.7152 1.44139 26.6786 1.55856C26.6572 1.62786 26.6371 1.69841 26.6093 1.79165C26.7064 1.80929 26.7845 1.83322 26.8638 1.837C27.3514 1.86598 27.8226 1.97685 28.2888 2.11166C28.4753 2.16584 28.6315 2.15954 28.8129 2.06001C29.0876 1.91134 29.3887 1.8118 29.6785 1.69085C30.064 1.52958 30.4634 1.41493 30.8779 1.35446C31.8544 1.21209 32.7678 1.38344 33.6119 1.89874C33.7745 1.99827 33.9231 2.11922 34.0794 2.22758C34.1688 2.28931 34.2583 2.35105 34.3528 2.4027C34.4649 2.46444 34.4813 2.4909 34.4447 2.61059C34.3654 2.87643 34.2016 3.06164 33.9408 3.16369C33.8223 3.21031 33.7102 3.27078 33.5628 3.33882C33.6422 3.37158 33.6837 3.39047 33.7278 3.40559C34.0957 3.53032 34.4649 3.65379 34.8315 3.78105C34.926 3.8138 35.0104 3.82766 35.1037 3.77349C35.2599 3.68403 35.2977 3.71049 35.3002 3.89444C35.3002 3.9083 35.3015 3.9209 35.304 3.95113C35.4942 4.03933 35.692 4.12878 35.8873 4.22454C36.293 4.42108 36.7 4.61259 37.0994 4.82173C37.2581 4.90489 37.3816 4.91497 37.529 4.8041C37.7848 4.61133 38.0506 4.43116 38.3164 4.25225C38.4059 4.19178 38.5054 4.14264 38.6037 4.09728C38.6617 4.07083 38.7309 4.06957 38.7587 4.14516C38.7839 4.21194 38.7284 4.23713 38.6806 4.26737C38.3555 4.46896 38.0317 4.67054 37.7092 4.87591C37.6537 4.91119 37.6058 4.9578 37.5202 5.02584C37.7684 5.10647 37.9498 5.24758 38.1791 5.27152C38.2648 5.28034 38.3416 5.29924 38.3883 5.37861C38.4349 5.45673 38.5029 5.46051 38.5835 5.45043C38.712 5.43405 38.8418 5.41767 38.9703 5.42019C39.0976 5.42271 39.1366 5.49957 39.0787 5.61422C39.0358 5.69989 38.9867 5.78305 38.93 5.85864C38.8569 5.95565 38.8847 6.02873 38.9552 6.11188C39.1429 6.32859 39.3244 6.55033 39.5083 6.77082C40.0098 7.36801 40.4608 8.00175 40.8804 8.6569C41.2004 9.15709 41.5279 9.65224 41.8341 10.16C42.1264 10.645 42.3872 11.149 42.6745 11.6379C43.0298 12.2439 43.4027 12.8398 43.7593 13.4458C44.2393 14.2635 44.7206 15.0825 45.183 15.9102C45.8028 17.0189 46.3635 18.1592 46.8838 19.3183C47.1976 20.0163 47.5075 20.7143 47.8842 21.382C48.1034 21.7701 48.2307 22.1959 48.3554 22.6218C48.3756 22.6923 48.3907 22.7654 48.3894 22.846C48.3516 22.7503 48.3176 22.6533 48.2748 22.5588C48.0908 22.1556 47.9056 21.7524 47.7179 21.3518C47.4785 20.839 47.2227 20.3325 46.9997 19.8122C46.521 18.6946 46.0019 17.596 45.4299 16.5238C45.0066 15.7288 44.5782 14.9363 44.0956 14.1728C43.6988 13.5441 43.3183 12.9041 42.9416 12.2628C42.5712 11.6341 42.2234 10.9903 41.8467 10.3653C41.4662 9.73413 41.0618 9.11803 40.6712 8.49312C40.1446 7.65023 39.497 6.90059 38.8607 6.14338C38.8393 6.11818 38.8103 6.09928 38.7713 6.06527C38.678 6.13708 38.5835 6.20134 38.4979 6.27567C38.3353 6.42056 38.1816 6.57553 38.0191 6.71916C37.7369 6.96862 37.4673 7.2269 37.2543 7.54062C37.2254 7.5822 37.1573 7.61496 37.1069 7.61622C37.0805 7.61622 37.0464 7.54062 37.0275 7.49401C36.9507 7.30628 36.9205 7.09713 36.7554 6.92957C36.5727 7.00894 36.3863 7.08957 36.201 7.16895C35.8684 7.31006 35.5383 7.45621 35.2032 7.59102C34.8933 7.71575 34.5808 7.83292 34.2683 7.94631C33.8878 8.08364 33.491 8.14916 33.0903 8.18822C33.0425 8.19325 32.9921 8.19704 32.948 8.18318C32.9152 8.1731 32.8673 8.1353 32.8686 8.11136C32.8711 8.07231 32.9051 8.03451 32.9303 7.99797C32.9354 7.99041 32.9555 7.99041 32.9694 7.98915C33.21 7.97781 33.4166 7.86946 33.6207 7.75859C33.9685 7.5696 34.3112 7.3718 34.6564 7.17525C34.6841 7.15887 34.7081 7.13619 34.7219 7.08327C34.5077 7.13367 34.2872 7.16895 34.0794 7.23824C33.8211 7.32518 33.5653 7.42597 33.3221 7.54692C32.987 7.71449 32.667 7.91356 32.3331 8.08491C32.0673 8.22098 31.8166 8.39232 31.5142 8.44776C31.3164 8.48429 31.1501 8.4465 31.0883 8.33689C31.0253 8.22476 31.0782 8.02443 31.2345 7.90222C31.3882 7.78253 31.5646 7.69055 31.741 7.57968C31.6742 7.51416 31.5885 7.49023 31.4839 7.52172C31.3857 7.55196 31.2887 7.5822 31.1904 7.60992C30.7759 7.72583 30.3538 7.71449 29.9305 7.68299C29.303 7.63638 28.6857 7.52046 28.0822 7.34786C27.3565 7.13997 26.9319 6.56671 26.8361 5.82966C26.7794 5.39247 26.8122 4.95654 26.8071 4.52062C26.8059 4.37699 26.7996 4.23335 26.7971 4.09098C26.7945 3.86924 26.7076 3.68403 26.5501 3.49253C26.5337 3.56686 26.5199 3.616 26.5136 3.6664C26.4594 4.16028 26.3095 4.62645 26.1029 5.07498C26.0714 5.14301 26.0512 5.21735 26.0134 5.2816C25.9895 5.32318 25.9454 5.36476 25.9025 5.37861C25.8836 5.38491 25.832 5.32696 25.8131 5.28916C25.6909 5.04222 25.6115 4.78142 25.58 4.50802C25.5447 4.19556 25.5208 3.8831 25.4893 3.57064C25.4779 3.45599 25.459 3.34134 25.4338 3.22794C25.4149 3.13849 25.4364 3.06794 25.5246 3.05282C25.677 3.02636 25.7652 2.91801 25.8395 2.80839C26.0134 2.54759 26.1696 2.27545 26.3322 2.00709C26.3422 1.99197 26.3397 1.96929 26.3473 1.92898C26.2188 1.89622 26.0928 1.9126 25.968 1.92646C25.3935 1.99197 24.8492 2.16584 24.3201 2.39514C23.7166 2.65721 23.1534 2.98856 22.6079 3.35394C22.0787 3.70797 21.5861 4.10358 21.1061 4.52187C20.7041 4.87213 20.3047 5.22365 19.952 5.62304C19.5186 6.1144 19.0839 6.60577 18.7349 7.16391C18.6379 7.32014 18.5295 7.47007 18.425 7.62126C18.0256 8.19829 17.7509 8.83203 17.5203 9.49474C17.2154 10.3704 17.0378 11.2725 16.8765 12.1784C16.7216 13.0452 16.5754 13.9133 16.4633 14.7864C16.3499 15.6733 16.2693 16.5628 16.2466 17.4599C16.2201 18.4603 16.2743 19.4543 16.3826 20.4446C16.4293 20.8705 16.5364 21.29 16.617 21.7108C16.6422 21.8444 16.6762 21.9767 16.7014 22.1115C16.7531 22.3899 16.8576 22.647 16.9836 22.8989C17.0466 23.0249 17.0895 23.1635 17.126 23.3009C17.1965 23.5667 17.3528 23.7821 17.5304 23.9799C17.6237 24.0845 17.6892 24.1941 17.7433 24.3226C18.0356 25.0282 18.1427 25.7816 18.3103 26.5187C18.4073 26.9508 18.5157 27.3817 18.6139 27.8139C18.6492 27.9663 18.7374 28.0507 18.8899 28.0747C19.0524 28.0999 19.1897 28.1553 19.3271 28.2662C19.4518 28.367 19.6395 28.3909 19.8008 28.4451C19.8323 28.4564 19.8751 28.4426 19.9003 28.4589C19.9293 28.4778 19.9658 28.5207 19.9608 28.5459C19.9558 28.5748 19.9079 28.6152 19.8776 28.6152C19.826 28.6152 19.7731 28.59 19.7227 28.5711C19.5135 28.4892 19.3044 28.4098 19.0978 28.3216C18.9869 28.275 18.8836 28.212 18.7374 28.1364C18.7588 28.2372 18.7651 28.2951 18.7828 28.3506C19.0839 29.2476 19.5223 30.0653 20.151 30.7784C20.335 30.9876 20.49 31.2232 20.6676 31.4399C20.7734 31.5697 20.8755 31.7108 21.0569 31.7725C21.0846 31.741 21.1224 31.7171 21.135 31.683C21.2383 31.3933 21.4853 31.29 21.7486 31.2295C21.988 31.174 22.2299 31.1589 22.4655 31.2837C22.5764 31.3416 22.715 31.3454 22.8384 31.3832C23.0375 31.4437 23.2391 31.4903 23.4255 31.5911C23.5805 31.6742 23.7506 31.7284 23.9131 31.7977C23.9799 31.8267 24.0542 31.8481 24.1122 31.8897C24.6338 32.2651 25.1919 32.5398 25.8421 32.6103C26.1129 32.6393 26.3674 32.7502 26.6056 32.8888C27.364 33.3348 28.0545 33.8639 28.6378 34.5254C28.755 34.6577 28.8948 34.7698 29.0246 34.8908C29.1103 34.9689 29.206 35.0382 29.2816 35.1251C29.4504 35.3191 29.6571 35.4615 29.8813 35.5825C30.2114 35.7626 30.5503 35.9289 30.9132 36.0272C31.1551 36.0927 31.4071 36.1305 31.6565 36.1582C31.8493 36.1797 31.9123 36.094 31.8796 35.9C31.8695 35.8395 31.8418 35.7828 31.8304 35.7223C31.8103 35.6051 31.8707 35.5547 31.9841 35.5875C32.3029 35.682 32.6204 35.7778 32.9391 35.871C33.113 35.9214 33.1168 35.9176 33.2201 35.7614C33.2579 35.7047 33.2856 35.6379 33.3322 35.5913C33.5011 35.4199 33.52 35.2133 33.5086 34.9853C33.496 34.727 33.5074 34.4662 33.525 34.2092C33.5376 34.0315 33.6006 33.8614 33.7165 33.7203C33.7568 33.6724 33.816 33.6397 33.8778 33.5918C33.9609 33.7077 33.9975 33.811 34.0126 33.9295C34.0516 34.2268 34.097 34.5241 34.1411 34.8215C34.1436 34.8379 34.1575 34.853 34.1827 34.9021C34.2255 34.7824 34.2784 34.6917 34.2872 34.596C34.3061 34.3931 34.3918 34.2155 34.4674 34.034C34.4989 33.9584 34.5216 33.8803 34.5493 33.8035C34.5758 33.7304 34.6224 33.6901 34.7282 33.7279C34.6425 33.9295 34.5443 34.126 34.475 34.3314C34.4069 34.5355 34.3679 34.7484 34.3112 34.9764C34.5657 34.8152 34.8051 34.6615 35.0457 34.5115C35.12 34.4649 35.2019 34.4284 35.2788 34.3843C35.3317 34.3541 35.396 34.3276 35.4275 34.2822C35.5194 34.1499 35.6605 34.1021 35.7928 34.0328C35.9125 33.971 36.0221 33.8891 36.1355 33.8161C36.1582 33.801 36.1758 33.7745 36.1998 33.7669C36.4492 33.6888 36.5878 33.4797 36.7504 33.2995C37.0225 32.9971 37.3551 32.8359 37.7646 32.8648C37.9196 32.8762 38.0405 32.827 38.1615 32.7389C38.4475 32.5297 38.7385 32.3269 39.0308 32.1253C39.1152 32.0673 39.2072 32.0194 39.3004 31.9791C39.4945 31.896 39.6822 31.8771 39.8913 31.9703C40.1635 32.0938 40.4558 32.1744 40.7355 32.284C40.9963 32.3848 41.2546 32.4932 41.5078 32.6091C41.6476 32.6733 41.7762 32.6759 41.921 32.6242C42.1327 32.5486 42.3494 32.4881 42.5636 32.4214C42.5901 32.4138 42.6178 32.4075 42.6392 32.3924C42.7022 32.3483 42.7564 32.2739 42.8231 32.2613C42.8962 32.2475 42.9794 32.3042 43.0575 32.3067C43.3435 32.313 43.6295 32.3117 43.9155 32.3092C43.9697 32.3092 44.0276 32.3029 44.0755 32.2828C44.3905 32.1517 44.6941 32.2261 44.9927 32.3319C45.217 32.4113 45.4299 32.5259 45.6743 32.5335C45.7625 32.536 45.852 32.5511 45.9389 32.5436C46.0435 32.5347 46.1102 32.5675 46.1304 32.6973C46.206 32.6733 46.2803 32.6708 46.3257 32.6318C46.6117 32.3899 46.9481 32.3458 47.3198 32.371C47.3563 32.5713 47.51 32.5952 47.6851 32.5889C47.7456 32.5864 47.8099 32.5902 47.8678 32.6066C47.8905 32.6129 47.9195 32.6582 47.917 32.6834C47.9157 32.7036 47.8666 32.7401 47.8477 32.7363C47.6423 32.6897 47.4243 32.667 47.2391 32.5763C46.9556 32.4365 46.715 32.4768 46.4756 32.6507C46.4643 32.6582 46.4517 32.6658 46.4441 32.6771C46.2438 32.982 45.9868 32.8711 45.7298 32.7779C45.6088 32.7338 45.4866 32.6973 45.3644 32.657C45.3518 32.6532 45.3341 32.6544 45.3253 32.6469C45.1502 32.4881 44.9146 32.4755 44.7105 32.3873C44.5114 32.3017 44.3136 32.2828 44.1196 32.3899C43.9659 32.4755 43.8172 32.4906 43.6522 32.4226C43.5425 32.3773 43.4279 32.3848 43.312 32.4289C43.2389 32.4566 43.1532 32.4604 43.0739 32.4604C42.8887 32.4617 42.8496 32.4869 42.8131 32.6708C42.7236 33.1256 42.6253 33.5792 42.5497 34.0353C42.5006 34.3301 42.4855 34.6312 42.4565 34.9298C42.425 35.2624 42.4036 35.5976 42.3645 35.9289C42.3028 36.4468 42.3154 36.9646 42.3192 37.4837C42.3217 37.9952 42.2927 38.5067 42.2663 39.0182C42.231 39.7011 42.202 40.3827 42.2663 41.0643C42.2814 41.2206 42.2801 41.3781 42.2978 41.5343C42.3368 41.8656 42.3847 42.197 42.425 42.5284C42.4515 42.7514 42.4741 42.9756 42.4918 43.2012C42.5321 43.7114 42.5485 44.2255 42.614 44.7319C42.6606 45.0948 42.7551 45.4526 42.9781 45.7625C43.0676 45.8873 43.118 46.0423 43.1822 46.1846C43.2125 46.2514 43.2326 46.3245 43.2566 46.3925C43.4846 46.3282 43.4972 46.3371 43.5287 46.5878C43.7278 46.6281 43.7731 46.7831 43.7794 46.9658C43.7832 47.0804 43.7958 47.1951 43.8021 47.3097C43.8059 47.3778 43.792 47.4357 43.7076 47.4357C43.6345 47.4345 43.5929 47.3941 43.5917 47.3211C43.5892 47.2178 43.5917 47.1132 43.5917 47.0099C43.5778 47.0073 43.5627 47.0061 43.5489 47.0036C43.5249 47.0918 43.4959 47.1787 43.4783 47.2681C43.4632 47.345 43.4355 47.3954 43.3473 47.3904C43.2628 47.3866 43.2238 47.3425 43.22 47.2618C43.2162 47.2001 43.2049 47.1384 43.2124 47.0779C43.2717 46.6079 43.0701 46.2136 42.8458 45.8293C42.6531 45.5005 42.5245 45.1528 42.493 44.7723C42.4452 44.1801 42.3986 43.5892 42.3507 42.997C42.3456 42.929 42.3393 42.8597 42.323 42.7942C42.1781 42.1995 42.1818 41.5885 42.1289 40.9837C42.0622 40.2114 42.1327 39.4428 42.1844 38.673C42.2184 38.1628 42.1944 37.6487 42.1995 37.1372C42.202 36.8852 42.1995 36.632 42.2184 36.38C42.2625 35.8017 42.3041 35.2234 42.3721 34.6464C42.4275 34.1651 42.5157 33.6888 42.5938 33.2101C42.6253 33.0223 42.6707 32.8359 42.7072 32.6494C42.7148 32.6116 42.7085 32.57 42.7085 32.5007C42.6392 32.5209 42.5699 32.5196 42.5346 32.5536C42.3985 32.6859 42.2285 32.6859 42.0596 32.7023C42.0269 32.7048 41.9929 32.7124 41.9525 32.7187C42.0155 32.856 42.1743 32.7792 42.2574 32.8774C42.2259 32.9845 42.1415 32.9707 42.0647 32.9493C41.9929 32.9291 41.9248 32.8951 41.858 32.8598C41.7522 32.8031 41.6527 32.817 41.5796 32.9039C41.4851 33.0186 41.3831 32.9871 41.2558 32.9833C41.0089 32.977 40.772 32.9392 40.5326 32.8888C40.4734 32.8762 40.3953 32.9039 40.3411 32.9379C40.2504 32.9971 40.1685 33.0009 40.0715 32.9619C39.9316 32.9052 39.7893 32.8623 39.6343 32.9102C39.5978 32.9215 39.5524 32.9115 39.5134 32.9026C39.3395 32.8636 39.1681 32.817 38.993 32.9026C38.9615 32.9178 38.9136 32.9014 38.8733 32.8938C38.7864 32.8774 38.7007 32.8522 38.6138 32.8384C38.547 32.8283 38.4676 32.8094 38.4122 32.8359C38.1589 32.9568 37.8755 33.0274 37.6764 33.2479C37.6121 33.3184 37.5441 33.3852 37.4773 33.4532C37.3501 33.5792 37.1939 33.6372 37.0175 33.6485C36.8814 33.6573 36.7466 33.6838 36.6105 33.6876C36.4228 33.6913 36.2867 33.7972 36.2187 33.9421C36.138 34.1172 35.9869 34.1424 35.8533 34.1474C35.6467 34.155 35.5169 34.2533 35.4275 34.4108C35.3607 34.5292 35.2826 34.5909 35.149 34.6186C34.994 34.6501 34.8517 34.7194 34.7786 34.8807C34.7395 34.9676 34.6564 34.9777 34.5732 34.9928C34.3439 35.0344 34.2104 35.2121 34.2305 35.4439C34.2696 35.8735 34.3376 36.2956 34.514 36.695C34.5934 36.8764 34.5241 36.9747 34.3288 36.9936C34.2583 36.9999 34.2079 36.9747 34.2142 36.8915C34.2305 36.6673 34.1436 36.5022 33.9471 36.3876C33.8866 36.3523 33.8475 36.2817 33.7795 36.2061C33.6812 36.346 33.5867 36.4757 33.4985 36.6106C33.2844 36.9369 33.118 37.2871 32.9769 37.6512C32.8824 37.8944 32.8736 38.1489 32.9102 38.3984C33.0311 39.2098 32.9883 40.0186 32.89 40.8275C32.8686 41.0026 32.8598 41.1828 32.8736 41.3579C32.8824 41.4763 32.9228 41.5998 32.9782 41.7056C33.1911 42.1076 33.2982 42.5284 33.2566 42.987C33.2163 43.4216 33.2113 43.855 33.2629 44.2935C33.3209 44.7811 33.3335 45.2737 33.3448 45.7651C33.3524 46.1166 33.4708 46.4177 33.6686 46.6961C33.9912 47.1497 34.2368 47.6423 34.4409 48.1602C34.5405 48.4134 34.6703 48.6553 34.7937 48.9186C34.829 48.9275 34.8807 48.9388 34.9512 48.9552C34.9638 49.1265 34.9764 49.2991 34.9878 49.473C34.8819 49.478 34.7723 49.478 34.6627 49.478ZM32.192 36.2754C32.4112 36.3183 32.6292 36.3611 32.8572 36.4052C32.9202 36.2716 32.9769 36.1519 33.05 35.997C32.856 35.9617 32.6783 35.9655 32.5397 35.8937C32.3747 35.8093 32.2084 35.8748 32.0446 35.8093C32.0358 35.8848 32.027 35.9453 32.0219 36.0058C32.003 36.2099 32.003 36.2099 32.1996 36.2792C32.1416 36.2792 32.0849 36.2792 32.0194 36.2792C31.9992 36.5765 32.1101 36.7945 32.3331 36.9596C32.4276 37.0288 32.5322 37.0276 32.5876 36.9457C32.6771 36.8134 32.7628 36.6748 32.7678 36.5085C32.5675 36.4266 32.3797 36.351 32.192 36.2754ZM33.0248 3.35142C33.0273 3.33504 33.0311 3.31866 33.0336 3.30228C32.958 3.27834 32.8837 3.24936 32.8068 3.23299C32.1807 3.10069 31.5507 2.97848 30.9271 2.83863C30.2618 2.68996 29.5978 2.53122 28.9389 2.36113C28.755 2.31451 28.6479 2.36365 28.5383 2.50224C28.2989 2.80714 28.1301 3.15109 28.0041 3.51142C27.8176 4.04311 27.6651 4.58109 27.9826 5.12789C28.0671 5.27404 28.1616 5.41641 28.28 5.52602C28.44 5.67595 28.6504 5.75533 28.881 5.74777C28.9238 5.74651 28.9654 5.75155 29.0183 5.75407C28.9969 5.77927 28.9906 5.79313 28.9805 5.79817C28.9616 5.80572 28.9414 5.80824 28.9213 5.81076C28.5307 5.86872 28.2346 5.68225 27.97 5.43153C27.6878 5.16443 27.5165 4.82047 27.3388 4.4803C27.3061 4.41604 27.2658 4.35557 27.2242 4.28501C27.0931 4.35935 26.9319 4.35431 26.9331 4.54833C26.9369 4.9578 26.9054 5.36602 26.9646 5.77423C27.0415 6.30843 27.2544 6.7494 27.7218 7.04926C27.9511 7.19541 28.2056 7.271 28.4627 7.334C28.7071 7.39321 28.9578 7.43479 29.206 7.47511C29.7062 7.557 30.2089 7.61118 30.7154 7.56708C30.9359 7.54818 31.1576 7.51038 31.368 7.41337C31.2206 7.2395 31.0719 7.08831 30.9523 6.91697C30.8754 6.80735 30.7923 6.77082 30.6663 6.76452C30.2026 6.7431 29.8524 6.52639 29.6105 6.12826C29.4404 5.84982 29.332 5.5487 29.2703 5.23372C29.1859 4.80661 29.046 4.38832 29.0888 3.94231C29.0951 3.8768 29.0737 3.8075 29.0573 3.74199C29.0183 3.58954 29.0397 3.5593 29.1947 3.56182C29.235 3.56308 29.2766 3.56812 29.3169 3.56938C30.0817 3.59206 30.8452 3.62482 31.6099 3.63112C32.095 3.63364 32.5649 3.50639 33.0248 3.35142ZM37.209 5.0082C37.2039 4.9893 37.1989 4.9704 37.1951 4.9515C36.5639 4.60503 35.9176 4.29257 35.2549 4.03051C35.2208 4.06579 35.2032 4.07838 35.1944 4.09602C34.9298 4.58361 34.5241 4.94142 34.0819 5.25136C33.6409 5.56004 33.181 5.84352 32.7174 6.1144C32.2462 6.39032 31.7573 6.63475 31.2131 6.74184C31.1627 6.75192 31.1148 6.77334 31.0581 6.79224C31.1148 6.97996 31.2572 7.08202 31.3756 7.19919C31.5167 7.3403 31.6767 7.34534 31.8657 7.29368C32.2928 7.17651 32.7224 7.07067 33.1558 6.97618C33.3952 6.92452 33.6409 6.90563 33.8853 6.87287C34.3011 6.81743 34.6715 6.65112 35.0054 6.40418C35.1528 6.29457 35.2863 6.16228 35.4413 6.06527C35.8886 5.78935 36.3447 5.52728 36.7957 5.25892C36.9331 5.17577 37.0704 5.09135 37.209 5.0082ZM34.8769 3.90326C34.7925 3.86042 34.7421 3.82766 34.6866 3.81003C34.3124 3.68277 33.9357 3.56182 33.5628 3.43205C33.4318 3.3867 33.3133 3.40433 33.1848 3.44465C32.9253 3.52654 32.6645 3.61726 32.3974 3.66388C31.9539 3.74073 31.5066 3.78483 31.0543 3.76593C30.5151 3.74451 29.9758 3.73821 29.4366 3.72687C29.3711 3.72561 29.3068 3.73443 29.2363 3.73947C29.23 3.80624 29.2249 3.85286 29.2211 3.89948C29.1783 4.37824 29.298 4.83433 29.4063 5.29294C29.4693 5.5613 29.5777 5.81328 29.7188 6.04637C29.9557 6.43694 30.3072 6.63097 30.7897 6.62845C30.7759 6.53017 30.7671 6.4508 30.7519 6.37143C30.699 6.07787 30.7204 5.78935 30.9132 5.55374C31.0631 5.37105 31.232 5.19215 31.426 5.05986C31.717 4.86079 32.032 4.69196 32.347 4.52943C32.9127 4.23839 33.5149 4.07839 34.1524 4.04689C34.3351 4.03807 34.5178 4.00027 34.6992 3.97129C34.7484 3.96373 34.7937 3.93602 34.8769 3.90326ZM28.8482 2.23262C28.9351 2.26285 28.9855 2.28427 29.0372 2.29687C29.6319 2.44554 30.2266 2.60051 30.8237 2.73784C31.5608 2.90667 32.3016 3.06038 33.0412 3.22165C33.1848 3.25314 33.3247 3.2607 33.4633 3.20023C33.6384 3.12463 33.8186 3.05786 33.9849 2.96588C34.0768 2.91549 34.155 2.82855 34.2179 2.74162C34.3049 2.62319 34.2872 2.53626 34.1751 2.43798C34.0768 2.35357 33.976 2.27167 33.8702 2.19608C33.4444 1.88992 32.9782 1.65936 32.4717 1.53966C31.8531 1.39225 31.2257 1.41115 30.6045 1.54974C30.0829 1.66566 29.5953 1.88236 29.1052 2.08647C29.0221 2.12174 28.9515 2.1734 28.8482 2.23262ZM30.9598 6.61963C31.0203 6.61711 31.0543 6.61837 31.0871 6.61333C31.4209 6.56167 31.7372 6.45332 32.0383 6.30591C32.313 6.16984 32.5864 6.02873 32.8522 5.87502C33.3965 5.56004 33.9307 5.22616 34.3943 4.79905C34.6136 4.59747 34.7925 4.35179 34.984 4.12248C35.0167 4.08343 35.0684 4.03051 35.0193 3.95743C34.9878 3.97129 34.9626 3.97885 34.9399 3.99271C34.7307 4.12374 34.509 4.17036 34.2583 4.16658C34.0227 4.1628 33.7833 4.20564 33.5489 4.24973C33.021 4.34927 32.5334 4.56345 32.0685 4.82677C31.7422 5.01198 31.4247 5.20601 31.1614 5.48571C30.8439 5.82084 30.8338 6.19378 30.9598 6.61963ZM27.0024 4.1817C27.0453 4.1565 27.0654 4.14894 27.0793 4.13508C27.2368 3.99019 27.2809 3.99649 27.3754 4.18548C27.4421 4.31903 27.5026 4.45762 27.5694 4.59117C27.5833 4.61889 27.6122 4.64031 27.6563 4.68818C27.6097 3.75333 28.0141 3.00998 28.5055 2.26663C27.936 2.10285 27.3955 1.94032 26.8134 1.92772C26.8764 2.6887 26.9382 3.42449 27.0024 4.1817ZM0.80006 30.0351C0.468704 30.1661 0.177664 30.2808 -0.132274 30.4042C0.00127659 30.5012 0.0226951 30.6235 -0.00628287 30.7772C-0.0201419 30.8528 0.0214361 30.9523 0.065533 31.0241C0.284758 31.3807 0.599735 31.6402 0.95377 31.8481C1.06842 31.9149 1.21835 31.9375 1.35946 31.9212C1.41364 31.5268 1.10622 30.4937 0.855497 30.2178C0.708087 30.2644 0.556898 30.311 0.405709 30.3589C0.398149 30.3412 0.389329 30.3249 0.38177 30.3072C0.480043 30.1837 0.674069 30.1964 0.80006 30.0351ZM38.3731 32.6973C38.3744 32.7149 38.3756 32.7338 38.3769 32.7515C38.7498 32.7515 39.124 32.7489 39.497 32.7527C39.8749 32.7565 40.2491 32.8749 40.6309 32.7905C40.6624 32.7829 40.6989 32.7955 40.7329 32.7981C40.9371 32.8132 41.1399 32.8283 41.344 32.8422C41.4322 32.8485 41.5166 32.8422 41.6098 32.7489C41.3503 32.6066 41.116 32.4566 40.8337 32.4302C40.7216 32.4188 40.6246 32.3911 40.5251 32.342C40.3613 32.2601 40.195 32.1807 40.0224 32.1177C39.7338 32.0106 39.4453 32.0182 39.1782 32.1807C38.9061 32.3458 38.6415 32.5234 38.3731 32.6973ZM26.4443 2.10788C26.3926 2.1986 26.3649 2.25151 26.3322 2.30191C26.1835 2.53751 26.0726 2.81596 25.8748 2.99864C25.6291 3.22417 25.6216 3.45977 25.6543 3.74703C25.6984 4.125 25.6883 4.51054 25.8181 4.87717C25.8421 4.94521 25.8698 5.01198 25.9063 5.10521C25.9529 5.04222 25.9895 5.00946 26.0058 4.96788C26.1054 4.70708 26.2263 4.45132 26.2918 4.18296C26.4519 3.51646 26.472 2.83611 26.4443 2.10788ZM38.2358 5.48067C38.1678 5.42775 38.1401 5.39751 38.106 5.38113C37.9221 5.29294 37.7344 5.21105 37.5517 5.12033C37.4547 5.0712 37.374 5.08505 37.2846 5.14175C36.6521 5.54366 36.0184 5.94305 35.3859 6.34497C35.3632 6.35883 35.3481 6.38402 35.3279 6.40544C35.5169 6.39914 35.6933 6.4004 35.8684 6.38402C35.968 6.3752 36.0725 6.35505 36.1595 6.30969C36.7655 5.99345 37.3917 5.73013 38.0556 5.5613C38.1048 5.5487 38.1501 5.51972 38.2358 5.48067ZM36.2225 6.44828C36.3283 6.52387 36.4102 6.47348 36.4896 6.44576C36.9331 6.29079 37.3765 6.1333 37.8188 5.97707C37.9863 5.91786 38.1539 5.86368 38.3215 5.80447C38.3958 5.77801 38.4701 5.75155 38.513 5.84604C38.5432 5.91156 38.4979 5.95313 38.3807 5.98085C38.3152 5.99723 38.2333 5.99975 38.1892 6.04133C38.0191 6.20386 37.8263 6.32355 37.6071 6.40292C37.5945 6.4067 37.5857 6.4193 37.5756 6.42812C37.4358 6.56419 37.2657 6.64735 37.0893 6.72294C37.0187 6.75318 36.957 6.80483 36.8927 6.84515C36.9847 7.0228 37.0653 7.17651 37.1586 7.35668C37.4421 7.12611 37.6499 6.84641 37.912 6.62215C38.1741 6.39788 38.4512 6.18748 38.639 5.89266C38.387 5.59028 38.4764 5.59154 38.0934 5.68855C37.4988 5.841 36.9268 6.06023 36.3787 6.33993C36.3283 6.37017 36.2829 6.40796 36.2225 6.44828ZM33.6359 7.93876C33.6434 7.95135 33.651 7.96395 33.6585 7.97529C34.6942 7.75229 35.653 7.33148 36.6067 6.86279C36.4152 6.66624 36.3283 6.62719 36.1633 6.68262C35.687 6.84515 35.2007 6.9787 34.7773 7.271C34.6211 7.37935 34.4485 7.46377 34.2835 7.55952C34.0668 7.68677 33.8513 7.81276 33.6359 7.93876ZM32.8938 7.58472C32.7086 7.6074 32.5246 7.61622 32.3482 7.65653C32.0849 7.71701 31.8229 7.79008 31.5696 7.88206C31.4688 7.9186 31.3844 8.01687 31.3075 8.10002C31.2735 8.13782 31.2509 8.22475 31.2723 8.26129C31.2937 8.29783 31.3756 8.31421 31.4298 8.31421C31.4953 8.31421 31.5684 8.30035 31.6263 8.27011C32.0446 8.06097 32.4591 7.84552 32.8749 7.63134C32.885 7.62756 32.8862 7.60866 32.8938 7.58472ZM33.8438 33.8035C33.593 34.2381 33.6157 34.7018 33.6648 35.1743C33.7241 35.1352 33.7593 35.0873 33.7997 35.0432C33.8702 34.9639 33.9156 34.9626 33.9811 35.042C34.0025 35.0684 34.0138 35.105 34.0302 35.1365C33.9987 34.6879 33.9471 34.2444 33.8438 33.8035ZM36.5979 33.5716C37.1069 33.5729 37.5025 33.4192 37.7898 33.0122C37.6651 32.9593 37.5567 32.9669 37.4484 33.0274C37.3891 33.0601 37.3261 33.0916 37.2619 33.1042C36.9847 33.1584 36.7907 33.3272 36.5979 33.5716ZM33.8627 7.03792C33.52 6.99382 32.1391 7.28738 31.9047 7.44991C32.0333 7.5192 32.1567 7.49275 32.284 7.46503C32.6153 7.39195 32.948 7.3214 33.2806 7.2521C33.4784 7.21178 33.6661 7.14501 33.8627 7.03792ZM37.7734 6.16858C37.7671 6.15346 37.7596 6.13834 37.7533 6.12322C37.3463 6.27441 36.9217 6.37898 36.487 6.59065C36.6193 6.65994 36.7126 6.70908 36.8045 6.75822C37.1359 6.55663 37.4547 6.36261 37.7734 6.16858ZM35.6908 6.56419C35.3846 6.43694 34.8832 6.63979 34.7559 6.94342C35.1213 6.9409 35.3934 6.73554 35.6908 6.56419ZM26.7101 2.66476C26.5552 2.95958 26.5879 3.31866 26.7857 3.51017C26.821 3.30858 26.7794 2.83863 26.7101 2.66476ZM34.1613 36.2742C34.1323 36.0701 34.1058 35.8886 34.0768 35.6807C33.8463 35.9743 33.9231 36.0474 34.1613 36.2742ZM33.6837 35.561C33.7845 35.4955 33.8589 35.4464 33.9445 35.391C33.903 35.3393 33.8765 35.3053 33.8349 35.2524C33.7656 35.3443 33.6422 35.3771 33.6837 35.561ZM38.9048 5.59658C38.7788 5.55626 38.6932 5.56508 38.6024 5.65076C38.6516 5.70367 38.6944 5.75029 38.7549 5.8158C38.8128 5.73139 38.8544 5.67091 38.9048 5.59658ZM0.234361 30.088C0.473744 30.0716 0.619893 30.0074 0.674069 29.8826C0.52792 29.9519 0.38177 30.02 0.234361 30.088ZM33.9345 35.5749C33.8501 35.5976 33.7845 35.5976 33.7505 35.6303C33.7266 35.6543 33.7266 35.7349 33.7493 35.7652C33.7896 35.8181 33.8463 35.7967 33.8765 35.7387C33.8967 35.7009 33.9068 35.6555 33.9345 35.5749ZM0.226801 29.9355C0.275938 29.9141 0.327594 29.8952 0.375471 29.8713C0.425867 29.8461 0.473744 29.8159 0.549338 29.773C0.375471 29.7491 0.288537 29.8259 0.226801 29.9355ZM26.5854 2.13056C26.5766 2.2427 26.5678 2.35357 26.5602 2.4657C26.6509 2.35987 26.632 2.24522 26.5854 2.13056Z" fill="#0F0F0F"/>
<path d="M34.2935 49.478C34.2771 49.3798 34.2532 49.2815 34.2469 49.1832C34.2444 49.1492 34.2822 49.095 34.3137 49.0824C34.3741 49.0572 34.4182 49.1013 34.4271 49.1605C34.4422 49.2664 34.4472 49.3722 34.4573 49.4793C34.4031 49.478 34.3489 49.478 34.2935 49.478Z" fill="#0F0F0F"/>
<path d="M35.6051 25.415C35.7273 25.4289 35.852 25.444 36.007 25.4629C35.9503 25.3054 35.9037 25.1832 35.8646 25.0572C35.8546 25.0232 35.8571 24.9677 35.8785 24.9476C35.8999 24.9274 35.9604 24.9236 35.9881 24.9388C36.1191 25.0144 36.3043 24.9942 36.3862 25.163C36.4001 25.1907 36.4606 25.1907 36.4933 25.2134C36.5412 25.2474 36.5966 25.2827 36.6256 25.3306C36.7201 25.4944 36.6735 25.57 36.482 25.57C36.0335 25.5712 35.6051 25.6745 35.1767 25.793C34.8958 25.8711 34.606 25.919 34.32 25.982C34.0743 26.0361 33.8173 26.0613 33.5867 26.1533C33.0462 26.3675 32.4969 26.5439 31.935 26.6926C31.591 26.7833 31.2634 26.9294 30.9674 27.1272C30.6234 27.3565 30.2593 27.4397 29.846 27.4258C29.1896 27.4044 28.5559 27.2998 27.9562 27.0378C27.7155 26.9319 27.4887 26.7896 27.2657 26.6472C27.1775 26.5905 27.1095 26.496 27.0465 26.4078C26.923 26.2365 26.8046 26.0613 26.6925 25.8812C26.6131 25.7552 26.5211 25.6267 26.4833 25.4856C26.3989 25.1693 26.1948 24.9514 25.958 24.751C25.7602 24.5847 25.5699 24.4096 25.3671 24.2496C25.1378 24.0694 24.9009 23.8993 24.6653 23.728C24.4561 23.5755 24.2382 23.4357 24.0366 23.2757C23.5843 22.9153 23.1307 22.5588 22.6532 22.2299C22.1543 21.8873 21.6604 21.5294 21.2509 21.0734C20.9359 20.7231 20.5983 20.393 20.3073 20.0251C20.0049 19.6408 19.7441 19.2225 19.4694 18.8169C19.3434 18.6304 19.2225 18.4414 19.1066 18.2486C18.871 17.8568 18.7613 17.4196 18.682 16.9761C18.6177 16.6196 18.5963 16.2605 18.6328 15.8964C18.7072 15.1568 18.9377 14.4777 19.3472 13.8528C19.5488 13.5466 19.7982 13.2884 20.0515 13.0326C20.4421 12.6382 20.8654 12.2842 21.3618 12.0284C21.9338 11.7324 22.5272 11.5119 23.1748 11.4212C23.8892 11.3229 24.601 11.2927 25.3179 11.3141C25.8282 11.3292 26.3158 11.4564 26.7983 11.6076C27.427 11.8042 28.0053 12.1091 28.5798 12.4278C29.0334 12.6798 29.4996 12.9079 29.9582 13.151C30.7116 13.5492 31.4726 13.9372 32.2147 14.3555C32.7275 14.6453 33.1823 15.0245 33.5666 15.4718C33.9118 15.8724 34.1814 16.3247 34.3175 16.8438C34.5014 17.5431 34.6929 18.2398 34.8617 18.9428C34.9474 19.3007 34.9928 19.6673 35.0583 20.0301C35.1578 20.5807 35.2498 21.1326 35.3594 21.6819C35.4741 22.2551 35.4879 22.8334 35.4854 23.4143C35.4841 23.8439 35.4904 24.2748 35.5068 24.7044C35.5131 24.8594 35.5585 25.0118 35.5837 25.1655C35.5938 25.2386 35.5963 25.313 35.6051 25.415ZM35.3947 25.2613C35.3808 25.1328 35.3607 25.0257 35.3594 24.9186C35.3493 24.237 35.3519 23.5541 35.3304 22.8725C35.3191 22.5197 35.2763 22.1657 35.2259 21.8154C35.1654 21.4047 35.0772 20.9978 35.0066 20.5883C34.9008 19.9697 34.8391 19.346 34.6803 18.735C34.5102 18.0748 34.3691 17.4083 34.1663 16.7556C34.0038 16.2328 33.7215 15.788 33.3448 15.405C32.7905 14.8406 32.1466 14.3946 31.4449 14.0304C30.3979 13.4849 29.3509 12.9381 28.3052 12.39C27.834 12.1431 27.3615 11.8999 26.855 11.7261C26.1747 11.493 25.4767 11.3935 24.7623 11.4073C24.2382 11.4174 23.7141 11.4514 23.1912 11.5194C22.4428 11.6152 21.7637 11.8823 21.1312 12.2704C20.8654 12.4329 20.6285 12.6458 20.3904 12.8499C19.9305 13.243 19.5349 13.6928 19.2414 14.2257C18.8571 14.9237 18.6769 15.6734 18.7235 16.4696C18.7387 16.7267 18.7727 16.9875 18.8369 17.2357C18.9226 17.5708 19.0184 17.9072 19.2086 18.2045C19.322 18.3822 19.4404 18.5573 19.55 18.7387C19.9091 19.3284 20.3098 19.8903 20.7659 20.4081C21.4235 21.1552 22.1845 21.7839 23.0123 22.3345C23.171 22.4404 23.3285 22.5487 23.4797 22.6646C23.8312 22.9355 24.1752 23.2152 24.528 23.4823C24.7396 23.6423 24.9714 23.7759 25.1806 23.9397C25.5019 24.1916 25.8143 24.455 26.1268 24.7195C26.3221 24.8846 26.4733 25.0799 26.5766 25.3205C26.6748 25.5511 26.7857 25.7816 26.9243 25.9895C27.0667 26.2037 27.2179 26.433 27.4207 26.5792C27.6765 26.7656 27.9763 26.9017 28.2762 27.0113C28.7852 27.1978 29.3219 27.252 29.8637 27.2847C30.2442 27.3087 30.5667 27.2053 30.893 27.0227C31.2181 26.8412 31.562 26.6724 31.9173 26.5678C32.5007 26.3965 33.0802 26.2251 33.6447 25.9958C33.9067 25.89 34.1927 25.8295 34.475 25.7942C34.8025 25.7527 35.115 25.6619 35.4312 25.5838C35.4589 25.5775 35.4816 25.5511 35.5093 25.5322C35.3972 25.4238 35.2246 25.3999 35.1818 25.2071C35.2548 25.226 35.309 25.2399 35.3947 25.2613ZM36.4165 25.3999C36.3497 25.2399 36.23 25.1756 36.0776 25.1429C36.0826 25.4276 36.138 25.4717 36.4165 25.3999Z" fill="#0F0F0F"/>
<path d="M43.2314 27.0831C43.2276 27.1448 43.2225 27.1852 43.2238 27.2242C43.2288 27.3275 43.1696 27.3918 43.0877 27.4346C43.0273 27.4661 42.9567 27.4749 42.8962 27.5052C42.6153 27.645 42.3822 27.5783 42.1667 27.3641C42.1201 27.3175 42.0332 27.2986 41.9639 27.2935C41.877 27.2872 41.8215 27.2532 41.7888 27.1776C41.7031 26.9848 41.6073 26.7958 41.5393 26.598C41.3642 26.089 41.247 25.5624 41.0013 25.0773C40.6826 24.4499 40.2781 23.8892 39.7742 23.3991C39.3042 22.9418 38.8229 22.4958 38.3681 22.0246C37.878 21.5168 37.4383 20.9688 37.1838 20.296C37.0011 19.8109 36.9356 19.3032 36.9205 18.7916C36.8978 18.008 37.0049 17.2369 37.2153 16.4847C37.4471 15.6545 37.7457 14.8469 38.222 14.1199C38.3706 13.8931 38.5558 13.6877 38.7398 13.4887C38.896 13.3198 39.1102 13.2657 39.337 13.2682C39.468 13.2694 39.5789 13.3287 39.662 13.4206C39.7717 13.5416 39.8762 13.6688 39.9619 13.8074C40.1446 14.1048 40.3789 14.3429 40.6737 14.5281C40.9875 14.7246 41.281 14.9476 41.4889 15.2639C41.567 15.3836 41.6414 15.5058 41.7195 15.6267C41.9664 16.0135 42.2486 16.3713 42.5913 16.68C42.968 17.0202 43.2969 17.4045 43.5426 17.8505C43.6547 18.0533 43.7454 18.2662 43.8399 18.4779C43.9155 18.6455 43.9886 18.8143 44.0541 18.9857C44.3363 19.724 44.6047 20.4686 44.8995 21.2018C45.0847 21.663 45.309 22.109 45.5093 22.5651C45.6958 22.9897 45.9011 23.4054 45.9931 23.8666C46.1014 24.4159 46.0599 24.9551 45.915 25.4881C45.7978 25.9177 45.6277 26.3259 45.3392 26.6749C45.2485 26.7845 45.1464 26.8878 45.0393 26.9823C44.994 27.0226 44.9134 27.0592 44.8604 27.0478C44.6122 26.9924 44.3716 27.0365 44.1297 27.0781C44.049 27.0919 43.9634 27.1096 43.8991 27.039C43.8071 26.9395 43.6963 26.9357 43.5791 26.9697C43.4657 27.0025 43.3574 27.0415 43.2314 27.0831ZM42.8761 27.0579C43.0953 26.9886 43.2679 26.947 43.4292 26.8777C43.6056 26.8021 43.7656 26.7996 43.9407 26.8765C44.0301 26.9155 44.1398 26.9181 44.2393 26.9181C44.4295 26.9168 44.6185 26.9055 44.8075 26.8903C44.873 26.8853 44.9549 26.8803 44.9965 26.8412C45.1288 26.7152 45.2825 26.5917 45.3619 26.433C45.5685 26.0197 45.8028 25.6128 45.8734 25.1454C45.9288 24.78 45.9603 24.4171 45.9049 24.0455C45.8293 23.5289 45.6038 23.0703 45.3959 22.6041C45.2132 22.1934 45.0078 21.7902 44.8415 21.3732C44.4585 20.4169 44.1599 19.4291 43.7379 18.4867C43.5325 18.0294 43.2931 17.596 42.9542 17.2243C42.7791 17.0328 42.5964 16.8488 42.4137 16.6649C42.1289 16.3776 41.8782 16.0639 41.6703 15.7162C41.4776 15.3924 41.2835 15.0598 40.9597 14.8544C40.4621 14.5382 40.035 14.1589 39.7313 13.6487C39.5953 13.4194 39.3798 13.3576 39.1291 13.4043C38.9779 13.432 38.8481 13.505 38.7398 13.6159C38.5155 13.8465 38.3076 14.0922 38.1489 14.3731C37.7041 15.1631 37.3879 16.0022 37.1876 16.8879C36.9935 17.7421 36.9217 18.5963 37.0591 19.4682C37.151 20.0541 37.3602 20.587 37.684 21.0771C38.1249 21.7461 38.7524 22.2413 39.3017 22.8107C39.6709 23.1938 40.069 23.5528 40.4092 23.9585C40.9094 24.5557 41.2571 25.2436 41.4801 25.9933C41.5481 26.2213 41.6174 26.4494 41.6981 26.6736C41.7396 26.7883 41.8026 26.8966 41.8618 27.0037C41.911 27.0919 41.9866 27.1499 42.0911 27.1524C42.2272 27.1549 42.3406 27.1877 42.4175 27.3187C42.4578 27.3893 42.5334 27.4409 42.6253 27.4233C42.7387 27.4006 42.8521 27.3754 42.963 27.3414C43.0008 27.3301 43.0273 27.286 43.06 27.257C42.997 27.1877 42.9466 27.1335 42.8761 27.0579Z" fill="#0F0F0F"/>
<path d="M47.1068 29.5992C46.9896 29.7075 46.8851 29.8096 46.7742 29.9053C46.7515 29.9242 46.7099 29.9293 46.6772 29.928C46.521 29.9192 46.3635 29.9141 46.2085 29.894C45.7763 29.8373 45.3467 29.7718 44.9146 29.7113C44.8604 29.7037 44.805 29.6987 44.7508 29.7037C44.2443 29.7516 43.7429 29.6773 43.2414 29.6382C42.9806 29.6181 42.7311 29.5475 42.4918 29.4429C42.3318 29.3736 42.168 29.3434 41.9928 29.3497C41.8089 29.356 41.6249 29.3547 41.4397 29.356C41.1424 29.3585 40.8526 29.4177 40.5792 29.521C40.137 29.6861 39.6796 29.739 39.216 29.763C38.7271 29.7882 38.2597 29.8864 37.7986 30.0515C37.563 30.1346 37.3085 30.1623 37.0628 30.2165C36.8499 30.2631 36.637 30.306 36.4265 30.3614C36.1494 30.4345 35.8785 30.534 35.5988 30.592C35.0444 30.7079 34.4825 30.786 33.913 30.757C33.5061 30.7369 33.1117 30.8011 32.7212 30.9107C32.5775 30.951 32.4276 30.9712 32.2802 31.0014C31.7094 31.1161 31.1349 31.1867 30.5528 31.1476C30.3084 31.1312 30.0665 31.0833 29.8221 31.0518C29.715 31.038 29.6054 31.0367 29.4983 31.0229C29.4555 31.0178 29.4038 31.004 29.3748 30.975C29.3584 30.9586 29.366 30.8868 29.3874 30.8704C29.424 30.8414 29.4819 30.8175 29.5248 30.8251C29.7793 30.8729 30.03 30.946 30.2857 30.9813C30.4999 31.0115 30.7229 31.0292 30.9371 31.0065C31.6427 30.9321 32.3457 30.849 33.0386 30.6814C33.2868 30.6209 33.5527 30.6008 33.8097 30.6109C34.5203 30.6386 35.207 30.5151 35.8923 30.3513C36.3623 30.2392 36.8184 30.0716 37.3072 30.0389C37.4471 30.0301 37.5894 29.9834 37.7217 29.9305C38.2345 29.7252 38.77 29.6206 39.318 29.6105C39.8459 29.6004 40.3436 29.4656 40.8337 29.2943C41.0328 29.225 41.2344 29.2187 41.436 29.2036C41.6728 29.1847 41.9135 29.1922 42.1516 29.1985C42.2511 29.201 42.3595 29.2149 42.4489 29.2552C42.8559 29.4379 43.288 29.4921 43.724 29.5236C44.1183 29.5513 44.5101 29.5803 44.9095 29.5525C45.1678 29.5349 45.4337 29.6168 45.6957 29.6546C45.9452 29.6899 46.1934 29.7365 46.4441 29.7554C46.5877 29.7667 46.7238 29.705 46.8385 29.6105C46.9203 29.5462 47.001 29.5084 47.1068 29.5992Z" fill="#0F0F0F"/>
<path d="M48.1538 30.7847C48.1815 30.7343 48.1967 30.7054 48.2168 30.6688C48.1589 30.6071 48.0921 30.5479 48.0404 30.4786C47.9951 30.4156 47.9661 30.3412 47.9296 30.2719C47.9409 30.2593 47.9535 30.248 47.9648 30.2354C48.0001 30.2518 48.043 30.2606 48.0694 30.2858C48.1475 30.3601 48.213 30.4483 48.2937 30.5201C48.3957 30.6109 48.4537 30.6071 48.5683 30.5378C48.7284 30.442 48.8657 30.3236 48.9728 30.1699C48.9955 30.1371 49.0219 30.1069 49.0748 30.0414C49.0345 30.2669 48.8543 30.3967 48.8707 30.6146C49.0005 30.6247 49.1277 30.6335 49.255 30.6449C49.6216 30.6776 49.9883 30.7444 50.3536 30.7356C50.7946 30.7255 51.2343 30.6512 51.6753 30.6033C51.9058 30.5781 52.1351 30.5428 52.367 30.5239C52.6933 30.4962 53.0196 30.4572 53.3459 30.4635C53.6924 30.4698 54.0376 30.5227 54.3828 30.5567C54.5454 30.5731 54.7091 30.5857 54.8704 30.6159C55.0569 30.6512 55.2408 30.7003 55.4235 30.7532C55.5873 30.8011 55.7536 30.8465 55.9048 30.9221C56.0913 31.0166 56.2639 31.1425 56.4403 31.2559C56.4743 31.2774 56.5058 31.3063 56.5335 31.3353C56.6809 31.4852 56.8586 31.552 57.0702 31.5369C57.2743 31.523 57.4797 31.5193 57.6838 31.5067C57.7355 31.5029 57.7859 31.4815 57.8551 31.4638C57.8035 31.2761 57.7556 31.1047 57.7052 30.9233C57.8488 30.9057 57.8892 30.9888 57.9194 31.0707C58.0278 31.3731 58.0202 31.3353 58.3427 31.2522C58.5393 31.2018 58.7295 31.1211 58.9248 31.0632C58.9702 31.0493 59.0344 31.0543 59.071 31.0795C59.0949 31.0959 59.0999 31.1715 59.0836 31.2068C58.9387 31.5079 58.8908 31.8443 58.7194 32.1379C58.5796 32.376 58.5292 32.6481 58.5708 32.9278C58.5746 32.9543 58.5884 32.9871 58.5783 33.0085C58.5569 33.0538 58.5317 33.1067 58.4927 33.1294C58.4712 33.142 58.4057 33.1067 58.3805 33.0765C58.2482 32.9228 58.1764 32.7414 58.1474 32.541C58.1033 32.2361 58.0215 31.9413 57.8753 31.6528C57.7556 31.7208 57.6725 31.8141 57.6032 31.9224C57.5666 31.9791 57.5213 32.0598 57.4469 32.0043C57.3764 31.9514 57.4306 31.8846 57.4784 31.8317C57.5276 31.7775 57.5729 31.7196 57.6473 31.6327C57.549 31.6264 57.4923 31.6188 57.4356 31.6213C57.3272 31.6264 57.2176 31.6364 57.1093 31.6453C56.8737 31.6667 56.6809 31.5886 56.4806 31.4575C55.9363 31.1035 55.363 30.7998 54.6991 30.7318C54.2241 30.6827 53.7504 30.631 53.2741 30.5957C52.8281 30.563 52.3922 30.6739 51.9512 30.7205C51.388 30.7797 50.8261 30.854 50.2617 30.883C49.958 30.8981 49.6519 30.8313 49.3457 30.8049C49.2172 30.7935 49.0874 30.786 48.9577 30.7835C48.7006 30.7835 48.4436 30.7847 48.1538 30.7847ZM58.8858 31.2396C58.5935 31.3051 58.3402 31.3605 58.0832 31.4966C58.189 31.5646 58.2419 31.6263 58.1739 31.7297C58.155 31.7586 58.1575 31.8116 58.1663 31.8494C58.2041 32.0018 58.2419 32.1543 58.2923 32.3017C58.3138 32.3647 58.3692 32.4163 58.4397 32.5171C58.5594 32.0585 58.8064 31.7057 58.8858 31.2396Z" fill="#0F0F0F"/>
<path d="M49.5107 28.9339C49.5296 28.6353 49.5687 28.3355 49.5636 28.0369C49.5586 27.7244 49.5233 27.4119 49.4805 27.102C49.415 26.6295 49.323 26.1609 49.2562 25.6884C49.2058 25.3318 49.0874 25.0017 48.9223 24.6842C48.8984 24.6376 48.8707 24.586 48.8644 24.5356C48.8392 24.2937 48.8216 24.0505 48.8014 23.8124C48.814 23.8451 48.8379 23.8855 48.8467 23.9308C48.9249 24.3063 49.0597 24.6628 49.202 25.0169C49.3306 25.3381 49.3608 25.6796 49.4187 26.0147C49.4817 26.3776 49.5636 26.7379 49.6166 27.102C49.6644 27.4321 49.7148 27.7672 49.7035 28.0986C49.6947 28.3796 49.5989 28.658 49.5422 28.9377C49.5309 28.9364 49.5208 28.9352 49.5107 28.9339Z" fill="#0F0F0F"/>
<path d="M38.0657 24.6918C38.1325 24.6691 38.1829 24.6527 38.2648 24.625C38.2913 24.6716 38.3202 24.7258 38.3568 24.7913C38.3908 24.7183 38.4084 24.6779 38.4437 24.6049C38.5206 24.7422 38.5899 24.8468 38.6377 24.9614C38.6503 24.9917 38.5911 25.0496 38.5647 25.0975C38.4412 25.0143 38.3429 24.9476 38.2194 24.8631C38.2106 24.9413 38.1879 24.9917 38.2031 25.0269C38.2472 25.1303 38.2371 25.2348 38.2358 25.3419C38.2358 25.3974 38.2598 25.4666 38.1892 25.4742C38.1401 25.4805 38.0657 25.4515 38.0342 25.4112C37.9259 25.2726 37.8201 25.129 37.7344 24.9753C37.6449 24.8153 37.587 24.6389 37.5026 24.4764C37.4055 24.2899 37.2959 24.1122 37.1813 23.9132C37.2229 23.8275 37.306 23.8414 37.374 23.8905C37.495 23.9774 37.6185 24.0543 37.7571 24.1135C37.8377 24.1488 37.8969 24.2559 37.9423 24.3428C37.9952 24.4449 38.0216 24.5608 38.0657 24.6918ZM38.009 25.1416C37.9864 24.5998 37.8541 24.2118 37.4975 24.1815C37.6411 24.5016 37.7419 24.8392 38.009 25.1416Z" fill="#0F0F0F"/>
<path d="M34.4145 35.4136C34.9764 35.2776 35.4489 35.0218 35.7009 34.47C35.6505 34.9298 35.3922 35.2221 34.9714 35.3217C34.7937 35.3632 34.6173 35.4111 34.4409 35.4552C34.4321 35.4426 34.4233 35.4275 34.4145 35.4136Z" fill="#0F0F0F"/>
<path d="M43.9697 33.0626C43.9671 33.1647 43.918 33.2012 43.8374 33.1748C43.5552 33.0841 43.2742 32.9871 43.0008 32.8686C43.3183 32.9329 43.637 32.9959 43.9697 33.0626Z" fill="#0F0F0F"/>
<path d="M38.4651 24.1589C38.3744 24.2508 38.4097 24.368 38.2572 24.3957C38.2761 24.2975 38.29 24.2168 38.3126 24.1387C38.3126 24.1349 38.3794 24.1475 38.4651 24.1589Z" fill="#0F0F0F"/>
<path d="M28.5231 20.3086C28.5496 20.2481 28.5761 20.1863 28.6151 20.0982C28.6781 20.1435 28.731 20.17 28.7688 20.2115C29.0825 20.5542 29.4454 20.8226 29.8788 20.9952C29.9544 21.0255 30.0275 21.0645 30.0968 21.1086C30.3324 21.2573 30.6033 21.3102 30.8628 21.3896C31.1198 21.4689 31.2924 21.3366 31.2572 21.0683C31.1929 20.5845 30.9875 20.1863 30.51 19.9785C30.3979 19.9293 30.2895 19.8689 30.1913 19.797C29.7843 19.4984 29.3698 19.2087 28.983 18.8849C28.7071 18.6543 28.4728 18.3721 28.217 18.1176C27.9789 17.8807 27.7206 17.6678 27.4207 17.5141C27.325 17.4649 27.2166 17.4334 27.1108 17.4171C26.826 17.3717 26.6434 17.5229 26.6383 17.8114C26.632 18.1289 26.7026 18.4376 26.8097 18.7337C27.015 19.3044 27.2343 19.8701 27.451 20.4371C27.4875 20.5316 27.5467 20.6172 27.5971 20.7054C27.6135 20.7344 27.6412 20.7596 27.6513 20.7911C27.6576 20.8113 27.6425 20.8591 27.6336 20.8604C27.6059 20.8629 27.5581 20.8591 27.5492 20.8415C27.4862 20.7206 27.422 20.5996 27.3741 20.4723C27.1473 19.8726 26.913 19.2767 26.7101 18.6694C26.6119 18.3746 26.5678 18.0596 26.5199 17.7509C26.4871 17.5405 26.6446 17.3515 26.8512 17.2974C27.1599 17.2155 27.4119 17.3427 27.6551 17.5078C28.0482 17.7736 28.3745 18.1151 28.6945 18.459C29.0511 18.842 29.4555 19.1633 29.8964 19.4392C30.1623 19.6043 30.4382 19.7542 30.7066 19.9167C30.7872 19.9659 30.8716 20.0188 30.9334 20.0881C31.1664 20.3451 31.3416 20.6324 31.3794 20.9876C31.397 21.1603 31.3327 21.3089 31.2483 21.4526C31.2005 21.5345 31.1274 21.5748 31.0417 21.5408C30.7645 21.4324 30.4521 21.45 30.1913 21.2762C30.0363 21.1729 29.8486 21.1174 29.6621 21.0519C29.7868 21.2359 29.9783 21.3782 30.0388 21.6063C29.938 21.6932 29.8713 21.6264 29.7957 21.5811C29.3912 21.3417 29.0611 21.0166 28.7499 20.6714C28.7184 20.6361 28.6945 20.5946 28.6668 20.5555C28.6517 20.5668 28.6365 20.5782 28.6202 20.5895C28.6529 20.6424 28.6806 20.6991 28.7184 20.7483C28.7613 20.8037 28.8243 20.868 28.7525 20.9234C28.6668 20.9914 28.6202 20.8995 28.5798 20.8402C28.5156 20.7445 28.4551 20.645 28.3959 20.5454C28.256 20.3123 28.1779 20.0427 27.9789 19.8437C27.9562 19.821 27.9726 19.7605 27.9713 19.7164C28.0129 19.7189 28.0671 19.7051 28.0935 19.7265C28.1792 19.7958 28.2938 19.8374 28.309 19.9772C28.314 20.0301 28.3795 20.0742 28.4135 20.1259C28.4539 20.1863 28.4917 20.2506 28.532 20.3123C28.5685 20.3401 28.6088 20.3653 28.6403 20.398C28.9188 20.6979 29.1833 21.0103 29.5197 21.2497C29.5878 21.2976 29.6596 21.3392 29.7301 21.3833C29.7264 21.3215 29.7012 21.2913 29.676 21.2598C29.3963 20.9007 29.0107 20.6576 28.6794 20.3552C28.6403 20.3186 28.5748 20.3224 28.5231 20.3086Z" fill="#0F0F0F"/>
<path d="M28.0695 18.4704C28.0292 18.5107 27.9939 18.5623 27.9448 18.5863C27.9158 18.6001 27.8465 18.5838 27.8264 18.5573C27.7848 18.4994 27.8251 18.4527 27.8843 18.4364C27.9347 18.4238 27.9876 18.425 28.0406 18.4212C28.0519 18.4376 28.0607 18.454 28.0695 18.4704Z" fill="#0F0F0F"/>
<path d="M44.3149 20.5656C44.2771 20.6916 44.2557 20.8037 44.2103 20.9058C44.0591 21.251 44.0251 21.6176 44.0087 21.9842C43.9911 22.3584 43.9911 22.7352 44.0679 23.1056C44.0755 23.1408 44.0427 23.1849 44.0289 23.2253C43.9949 23.1988 43.9445 23.1786 43.9293 23.1446C43.8714 23.0149 43.8248 22.8788 43.7731 22.7452C43.6471 22.4177 43.4606 22.1254 43.2578 21.8406C43.1709 21.7184 43.0865 21.5949 43.0008 21.4715C42.9529 21.4022 42.9012 21.3467 42.803 21.3518C42.5056 21.3681 42.2184 21.3266 41.9488 21.188C41.921 21.1741 41.8858 21.1716 41.8467 21.1615C41.8064 21.3316 41.9097 21.4412 41.9803 21.5597C42.0004 21.5949 42.0344 21.6214 42.0558 21.6554C42.0798 21.6945 42.0773 21.6957 41.9979 21.8129C41.911 21.7159 41.8278 21.6226 41.7333 21.5181C41.6539 21.6516 41.732 21.7789 41.7446 21.9074C41.6577 21.9263 41.6325 21.886 41.6313 21.8242C41.63 21.702 41.6363 21.5798 41.6313 21.4576C41.6275 21.3782 41.6224 21.2938 41.5935 21.222C41.5116 21.0192 41.4045 20.8339 41.2331 20.6853C41.0819 20.553 40.995 20.3716 40.9748 20.1662C40.9622 20.0314 40.9118 19.918 40.8022 19.8336C40.6032 19.6799 40.4091 19.5186 40.2088 19.3661C40.132 19.3069 40.04 19.2767 39.9291 19.3233C39.9291 19.3762 39.9291 19.4317 39.9291 19.4947C39.9102 19.4909 39.8926 19.4884 39.8762 19.4833C39.8699 19.4821 39.8636 19.4758 39.8623 19.4695C39.8334 19.3951 39.7653 19.3095 39.8346 19.2465C39.8787 19.2061 39.9833 19.1935 40.0425 19.2162C40.1811 19.2691 40.3159 19.3397 40.4369 19.4228C40.554 19.5035 40.6548 19.608 40.7594 19.7063C40.8375 19.7794 40.898 19.8676 41.024 19.8789C41.0706 19.8827 41.1197 19.9671 41.1512 20.0238C41.2949 20.2796 41.4322 20.5391 41.572 20.7961C41.6187 20.8831 41.6804 20.9524 41.7976 20.9763C41.9223 20.7861 42.1302 20.8024 42.3217 20.7974C42.5195 20.7924 42.6858 20.9007 42.7879 21.0557C42.9101 21.2422 43.0537 21.2384 43.2276 21.1804C43.4543 21.1048 43.6824 21.0355 43.9041 20.9486C44.0226 20.902 44.1423 20.839 44.1372 20.6727C44.1334 20.5946 44.1851 20.553 44.3149 20.5656ZM43.0071 21.3568C43.1721 21.5987 43.3258 21.8154 43.4695 22.0372C43.6106 22.2539 43.7441 22.4769 43.8802 22.6974C43.9167 22.4114 43.9142 22.138 43.9382 21.8671C43.9634 21.5924 44.0163 21.3203 44.0604 21.0229C43.7026 21.1376 43.375 21.2409 43.0071 21.3568ZM41.921 21.0595C42.202 21.2359 42.4817 21.2951 42.7979 21.2598C42.6026 20.9259 42.2108 20.8352 41.921 21.0595Z" fill="#0F0F0F"/>
<path d="M42.5825 18.9101C42.5712 18.8748 42.5497 18.8395 42.5485 18.803C42.5409 18.6732 42.5359 18.546 42.4653 18.4275C42.4515 18.4048 42.4867 18.3519 42.4993 18.3129C42.5359 18.3343 42.5888 18.3469 42.6064 18.3784C42.6266 18.4162 42.619 18.4716 42.6203 18.5182C42.6216 18.6467 42.6203 18.774 42.6203 18.9025C42.6064 18.905 42.5938 18.9075 42.5825 18.9101Z" fill="#0F0F0F"/>
<path d="M42.522 21.692C42.551 21.5635 42.6014 21.566 42.6972 21.6529C42.619 21.6705 42.5712 21.6819 42.522 21.692Z" fill="#0F0F0F"/>
</svg>
